# 3ds Max Wavefront OBJ Exporter v0.97b - (c)2007 guruware
# File Created: 24.08.2014 11:55:29

#
# object GeoSphere001
#

v  0.8799 28.5734 -0.4420
v  3.9804 23.6536 -0.7648
v  2.4862 23.6536 -4.7467
v  7.3784 17.6720 -0.6340
v  4.8215 18.6455 -4.4524
v  2.5827 17.6720 -7.2345
v  -2.2557 23.6536 -3.2248
v  -0.8176 18.6455 -6.6695
v  -4.1240 17.6720 -3.9848
v  -1.9833 23.6536 1.1582
v  -5.6509 18.6455 -0.2840
v  -5.2300 15.7591 3.7506
v  2.8940 23.6536 3.2643
v  -0.4961 16.7326 5.1227
v  2.5827 15.7591 7.2333
v  4.8215 16.7326 3.4316
v  7.1981 10.3771 1.6251
v  8.6485 10.3771 -1.2759
v  9.2879 5.6901 3.1870
v  10.8630 4.7166 -0.8383
v  9.9422 5.6901 -5.5691
v  4.7292 10.3771 -4.9425
v  1.2818 10.3771 -7.8214
v  4.9783 4.7166 -9.3032
v  -1.7074 5.6901 -8.6415
v  -2.0058 10.3771 -5.3983
v  -4.9589 10.3771 -3.3757
v  -4.5965 4.7166 -5.1216
v  -8.2595 5.6901 -0.8383
v  -5.9213 10.3771 1.6251
v  -3.1124 10.3771 4.6719
v  -5.7025 4.7166 4.7132
v  -1.1040 5.6901 6.9913
v  1.2818 10.3771 7.5908
v  4.8053 10.3771 5.7687
v  3.0867 4.7166 8.3195
v  -1.2959 -0.3190 -8.5268
v  10.3518 -0.3190 -4.0450
v  -7.9014 -0.3190 -1.0472
v  -1.2959 -0.3190 7.0947
v  9.3921 -0.3190 4.5718
# 41 vertices

vn -0.0036 0.9984 0.0569
vn 0.8865 0.4621 -0.0234
vn 0.3806 0.5639 -0.7329
vn 0.9420 0.3317 0.0501
vn 0.7878 0.2481 -0.5638
vn 0.3623 0.1798 -0.9146
vn -0.6654 0.5626 -0.4906
vn -0.3900 0.2336 -0.8907
vn -0.7805 0.1436 -0.6084
vn -0.6654 0.5395 0.5159
vn -0.9492 0.3139 -0.0212
vn -0.7297 0.1756 0.6609
vn 0.4067 0.5304 0.7438
vn -0.4086 0.2997 0.8621
vn 0.2011 0.2774 0.9395
vn 0.8220 0.2389 0.5169
vn 0.8454 0.2988 0.4428
vn 0.9294 0.3594 -0.0834
vn 0.8177 0.2833 0.5011
vn 0.9845 0.1518 0.0874
vn 0.7883 0.2611 -0.5572
vn 0.6222 0.3084 -0.7196
vn 0.0093 0.2547 -0.9670
vn 0.3282 0.0344 -0.9440
vn -0.4917 0.1635 -0.8553
vn -0.6086 0.1603 -0.7772
vn -0.7955 0.1647 -0.5832
vn -0.7469 0.0802 -0.6601
vn -0.9815 0.1452 -0.1251
vn -0.9429 0.1755 0.2830
vn -0.5835 0.1331 0.8011
vn -0.7303 0.0102 0.6831
vn -0.4071 0.0898 0.9090
vn -0.1015 0.1414 0.9847
vn 0.6752 0.2001 0.7100
vn 0.1955 -0.0182 0.9805
vn -0.3548 -0.1821 -0.9170
vn 0.8787 -0.2223 -0.4225
vn -0.9839 -0.1446 -0.1049
vn -0.3337 -0.2150 0.9178
vn 0.7742 -0.0471 0.6312
# 41 vertex normals

vt 1.0691 3.3827 0.0333
vt 3.0596 2.9118 0.2111
vt -0.1868 2.9118 0.3214
vt 3.0137 2.3393 0.4769
vt 3.5116 2.4324 0.3978
vt 3.8132 2.9118 0.3214
vt 3.8706 2.3393 0.4978
vt 0.6078 2.9118 0.3420
vt -0.1294 2.3393 0.4978
vt 0.2269 2.4324 0.4766
vt 0.6591 2.3393 0.4950
vt 1.2760 2.9118 0.2840
vt 1.0175 2.4324 0.5457
vt 1.3434 2.1562 0.5973
vt 2.2745 2.9118 0.2989
vt 1.7871 2.2494 0.4298
vt 2.1133 2.1562 0.5675
vt 2.4914 2.2494 0.3959
vt 2.7966 1.6411 0.4873
vt 3.0624 1.6411 0.5792
vt 2.7444 1.1925 0.6807
vt 3.0212 1.0993 0.7506
vt 3.3160 1.1925 0.7709
vt -0.4431 1.6411 0.4194
vt 0.0019 1.6411 0.5300
vt 3.5569 1.6411 0.4194
vt 3.7293 1.0993 0.6994
vt -0.2707 1.0993 0.6994
vt 0.2426 1.1925 0.6348
vt 0.4021 1.6411 0.4395
vt 0.7444 1.6411 0.5336
vt 0.6013 1.0993 0.5712
vt 0.9788 1.1925 0.7506
vt 1.1679 1.6411 0.5870
vt 1.5239 1.6411 0.5093
vt 1.3823 1.0993 0.6661
vt 1.7863 1.1925 0.5730
vt 1.9983 1.6411 0.5844
vt 2.3474 1.6411 0.5296
vt 2.1377 1.0993 0.6523
vt 0.2148 0.6173 0.6157
vt -0.7790 0.6173 0.7551
vt 3.2210 0.6173 0.7551
vt 0.9646 0.6173 0.7232
vt 1.7735 0.6173 0.5852
vt 2.6669 0.6173 0.7328
# 46 texture coords

g GeoSphere001
s 1
f 1/1/1 2/2/2 3/3/3 
f 2/2/2 4/4/4 5/5/5 
f 2/2/2 5/5/5 3/6/3 
f 3/6/3 5/5/5 6/7/6 
f 1/1/1 3/3/3 7/8/7 
f 3/3/3 6/9/6 8/10/8 
f 3/3/3 8/10/8 7/8/7 
f 7/8/7 8/10/8 9/11/9 
f 1/1/1 7/8/7 10/12/10 
f 7/8/7 9/11/9 11/13/11 
f 7/8/7 11/13/11 10/12/10 
f 10/12/10 11/13/11 12/14/12 
f 1/1/1 10/12/10 13/15/13 
f 10/12/10 12/14/12 14/16/14 
f 10/12/10 14/16/14 13/15/13 
f 13/15/13 14/16/14 15/17/15 
f 1/1/1 13/15/13 2/2/2 
f 13/15/13 15/17/15 16/18/16 
f 13/15/13 16/18/16 2/2/2 
f 2/2/2 16/18/16 4/4/4 
f 4/4/4 17/19/17 18/20/18 
f 17/19/17 19/21/19 20/22/20 
f 17/19/17 20/22/20 18/20/18 
f 18/20/18 20/22/20 21/23/21 
f 6/9/6 22/24/22 23/25/23 
f 22/26/22 21/23/21 24/27/24 
f 22/24/22 24/28/24 23/25/23 
f 23/25/23 24/28/24 25/29/25 
f 9/11/9 26/30/26 27/31/27 
f 26/30/26 25/29/25 28/32/28 
f 26/30/26 28/32/28 27/31/27 
f 27/31/27 28/32/28 29/33/29 
f 12/14/12 30/34/30 31/35/31 
f 30/34/30 29/33/29 32/36/32 
f 30/34/30 32/36/32 31/35/31 
f 31/35/31 32/36/32 33/37/33 
f 15/17/15 34/38/34 35/39/35 
f 34/38/34 33/37/33 36/40/36 
f 34/38/34 36/40/36 35/39/35 
f 35/39/35 36/40/36 19/21/19 
f 21/23/21 22/26/22 18/20/18 
f 22/26/22 6/7/6 5/5/5 
f 22/26/22 5/5/5 18/20/18 
f 18/20/18 5/5/5 4/4/4 
f 25/29/25 26/30/26 23/25/23 
f 26/30/26 9/11/9 8/10/8 
f 26/30/26 8/10/8 23/25/23 
f 23/25/23 8/10/8 6/9/6 
f 29/33/29 30/34/30 27/31/27 
f 30/34/30 12/14/12 11/13/11 
f 30/34/30 11/13/11 27/31/27 
f 27/31/27 11/13/11 9/11/9 
f 33/37/33 34/38/34 31/35/31 
f 34/38/34 15/17/15 14/16/14 
f 34/38/34 14/16/14 31/35/31 
f 31/35/31 14/16/14 12/14/12 
f 19/21/19 17/19/17 35/39/35 
f 17/19/17 4/4/4 16/18/16 
f 17/19/17 16/18/16 35/39/35 
f 35/39/35 16/18/16 15/17/15 
f 37/41/37 25/29/25 24/28/24 
f 37/41/37 24/28/24 38/42/38 
f 38/43/38 24/27/24 21/23/21 
f 39/44/39 29/33/29 28/32/28 
f 39/44/39 28/32/28 37/41/37 
f 37/41/37 28/32/28 25/29/25 
f 40/45/40 33/37/33 32/36/32 
f 40/45/40 32/36/32 39/44/39 
f 39/44/39 32/36/32 29/33/29 
f 41/46/41 19/21/19 36/40/36 
f 41/46/41 36/40/36 40/45/40 
f 40/45/40 36/40/36 33/37/33 
f 38/43/38 21/23/21 20/22/20 
f 38/43/38 20/22/20 41/46/41 
f 41/46/41 20/22/20 19/21/19 
# 0 polygons - 75 triangles

