# 3ds Max Wavefront OBJ Exporter v0.97b - (c)2007 guruware
# File Created: 24.08.2014 15:21:37

#
# object Cylinder001
#

v  7.3027 0.0000 -5.7464
v  3.3597 0.0000 -10.4146
v  -3.0202 0.0000 -9.1005
v  -3.0202 0.0000 -2.3923
v  3.3597 0.0000 0.9211
v  7.1894 8.5614 -5.1451
v  3.2465 8.5614 -10.5722
v  -3.1334 8.5614 -8.4992
v  -3.1334 8.5614 -1.7910
v  3.2465 8.5614 0.2819
v  2.9255 19.2651 -2.7083
v  -0.0701 19.2651 -6.8313
v  -4.9170 19.2651 -5.2564
v  -4.9170 19.2651 -0.1601
v  -0.0701 19.2651 1.4148
v  5.0641 31.8740 -4.5770
v  2.7719 31.8740 -7.7321
v  -0.9371 31.8740 -6.5270
v  -0.9371 31.8740 -2.6271
v  2.7719 31.8740 -1.4220
v  -1.2487 44.6057 -4.8105
v  22.2698 42.1183 -27.8871
v  22.2698 42.1183 16.3533
v  -21.1668 42.1183 -27.8871
v  -21.1668 42.1183 16.3533
v  22.2698 42.4393 16.3533
v  22.2698 42.4393 -27.8871
v  -21.1668 42.4393 16.3533
v  -21.1668 42.4393 -27.8871
v  0.4966 62.0889 -27.5326
v  0.4966 62.0889 16.7077
v  0.4966 10.1901 -27.5326
v  0.4966 10.1901 16.7077
v  0.1756 62.0889 16.7077
v  0.1756 62.0889 -27.5326
v  0.1756 10.1901 16.7077
v  0.1756 10.1901 -27.5326
v  22.7546 62.0889 -4.3537
v  -21.4858 62.0889 -4.3537
v  22.7546 10.1901 -4.3537
v  -21.4858 10.1901 -4.3537
v  -21.4858 62.0889 -4.6747
v  22.7546 62.0889 -4.6747
v  -21.4858 10.1901 -4.6747
v  22.7546 10.1901 -4.6747
v  21.7608 30.7724 -27.2364
v  21.7608 30.7724 17.0040
v  -21.6757 30.7724 -27.2364
v  -21.6757 30.7724 17.0040
v  21.7608 31.0934 17.0040
v  21.7608 31.0934 -27.2364
v  -21.6757 31.0934 17.0040
v  -21.6757 31.0934 -27.2364
# 53 vertices

vn 0.9957 -0.0011 -0.0930
vn 0.3139 0.1932 -0.9296
vn 0.9791 0.2018 -0.0262
vn 0.9957 -0.0011 -0.0930
vn 0.3106 0.0159 -0.9504
vn 0.3139 0.1932 -0.9296
vn 0.3106 0.0159 -0.9504
vn -0.7729 0.0416 -0.6332
vn 0.3139 0.1932 -0.9296
vn 0.3106 0.0159 -0.9504
vn -0.7588 0.0356 -0.6503
vn -0.7729 0.0416 -0.6332
vn -0.7588 0.0356 -0.6503
vn -0.7992 -0.1406 0.5844
vn -0.7729 0.0416 -0.6332
vn -0.7588 0.0356 -0.6503
vn -0.8459 -0.0053 0.5333
vn -0.7992 -0.1406 0.5844
vn -0.8459 -0.0053 0.5333
vn 0.3481 0.0301 0.9370
vn -0.7992 -0.1406 0.5844
vn -0.8459 -0.0053 0.5333
vn 0.2534 0.0468 0.9662
vn 0.3481 0.0301 0.9370
vn 0.2534 0.0468 0.9662
vn 0.9791 0.2018 -0.0262
vn 0.3481 0.0301 0.9370
vn 0.2534 0.0468 0.9662
vn 0.9957 -0.0011 -0.0930
vn 0.9791 0.2018 -0.0262
vn 0.9791 0.2018 -0.0262
vn 0.2310 0.1485 -0.9616
vn 0.9908 0.1106 0.0782
vn 0.9791 0.2018 -0.0262
vn 0.3139 0.1932 -0.9296
vn 0.2310 0.1485 -0.9616
vn 0.3139 0.1932 -0.9296
vn -0.8624 0.1032 -0.4957
vn 0.2310 0.1485 -0.9616
vn 0.3139 0.1932 -0.9296
vn -0.7729 0.0416 -0.6332
vn -0.8624 0.1032 -0.4957
vn -0.7729 0.0416 -0.6332
vn -0.8073 0.0608 0.5871
vn -0.8624 0.1032 -0.4957
vn -0.7729 0.0416 -0.6332
vn -0.7992 -0.1406 0.5844
vn -0.8073 0.0608 0.5871
vn -0.7992 -0.1406 0.5844
vn 0.2063 0.0605 0.9766
vn -0.8073 0.0608 0.5871
vn -0.7992 -0.1406 0.5844
vn 0.3481 0.0301 0.9370
vn 0.2063 0.0605 0.9766
vn 0.3481 0.0301 0.9370
vn 0.9908 0.1106 0.0782
vn 0.2063 0.0605 0.9766
vn 0.3481 0.0301 0.9370
vn 0.9791 0.2018 -0.0262
vn 0.9908 0.1106 0.0782
vn 0.9908 0.1106 0.0782
vn 0.3709 0.0787 -0.9253
vn 0.9915 0.1281 -0.0246
vn 0.9908 0.1106 0.0782
vn 0.2310 0.1485 -0.9616
vn 0.3709 0.0787 -0.9253
vn 0.2310 0.1485 -0.9616
vn -0.7565 0.1170 -0.6435
vn 0.3709 0.0787 -0.9253
vn 0.2310 0.1485 -0.9616
vn -0.8624 0.1032 -0.4957
vn -0.7565 0.1170 -0.6435
vn -0.8624 0.1032 -0.4957
vn -0.7685 0.2313 0.5966
vn -0.7565 0.1170 -0.6435
vn -0.8624 0.1032 -0.4957
vn -0.8073 0.0608 0.5871
vn -0.7685 0.2313 0.5966
vn -0.8073 0.0608 0.5871
vn 0.3834 0.2190 0.8972
vn -0.7685 0.2313 0.5966
vn -0.8073 0.0608 0.5871
vn 0.2063 0.0605 0.9766
vn 0.3834 0.2190 0.8972
vn 0.2063 0.0605 0.9766
vn 0.9915 0.1281 -0.0246
vn 0.3834 0.2190 0.8972
vn 0.2063 0.0605 0.9766
vn 0.9908 0.1106 0.0782
vn 0.9915 0.1281 -0.0246
vn 0.9915 0.1281 -0.0246
vn 0.3709 0.0787 -0.9253
vn -0.2187 0.9756 -0.0170
vn 0.3709 0.0787 -0.9253
vn -0.7565 0.1170 -0.6435
vn -0.2187 0.9756 -0.0170
vn -0.7565 0.1170 -0.6435
vn -0.7685 0.2313 0.5966
vn -0.2187 0.9756 -0.0170
vn -0.7685 0.2313 0.5966
vn 0.3834 0.2190 0.8972
vn -0.2187 0.9756 -0.0170
vn 0.3834 0.2190 0.8972
vn 0.9915 0.1281 -0.0246
vn -0.2187 0.9756 -0.0170
vn 0.0000 -1.0000 -0.0000
vn -0.0000 -1.0000 -0.0000
vn -0.0000 -1.0000 -0.0000
vn -0.0000 -1.0000 -0.0000
vn -0.0000 -1.0000 -0.0000
vn -0.0000 -1.0000 -0.0000
vn 0.0000 1.0000 0.0000
vn 0.0000 1.0000 0.0000
vn 0.0000 1.0000 0.0000
vn 0.0000 1.0000 0.0000
vn 0.0000 1.0000 0.0000
vn 0.0000 1.0000 0.0000
vn 1.0000 -0.0000 -0.0000
vn 1.0000 -0.0000 -0.0000
vn 1.0000 -0.0000 -0.0000
vn 1.0000 -0.0000 -0.0000
vn 1.0000 -0.0000 -0.0000
vn 1.0000 -0.0000 -0.0000
vn -1.0000 -0.0000 0.0000
vn -1.0000 -0.0000 0.0000
vn -1.0000 -0.0000 0.0000
vn -1.0000 -0.0000 0.0000
vn -1.0000 -0.0000 0.0000
vn -1.0000 -0.0000 0.0000
vn -0.0000 -0.0000 1.0000
vn -0.0000 -0.0000 1.0000
vn -0.0000 -0.0000 1.0000
vn -0.0000 -0.0000 1.0000
vn -0.0000 -0.0000 1.0000
vn -0.0000 -0.0000 1.0000
vn 0.0000 -0.0000 -1.0000
vn 0.0000 -0.0000 -1.0000
vn 0.0000 -0.0000 -1.0000
vn 0.0000 -0.0000 -1.0000
vn 0.0000 -0.0000 -1.0000
vn 0.0000 -0.0000 -1.0000
vn 0.0000 -1.0000 -0.0000
vn -0.0000 -1.0000 -0.0000
vn -0.0000 -1.0000 -0.0000
vn -0.0000 -1.0000 -0.0000
vn -0.0000 -1.0000 -0.0000
vn -0.0000 -1.0000 -0.0000
vn 0.0000 1.0000 0.0000
vn 0.0000 1.0000 0.0000
vn 0.0000 1.0000 0.0000
vn 0.0000 1.0000 0.0000
vn 0.0000 1.0000 0.0000
vn 0.0000 1.0000 0.0000
# 153 vertex normals

vt 0.3041 0.2639 0.0000
vt 0.1274 0.2601 1.0000
vt 0.0126 0.2639 1.0000
vt 0.2473 0.2639 1.0000
vt 0.4899 0.2639 1.0000
vt 0.3600 0.2639 1.0000
vt 0.1288 0.9896 1.0000
vt 0.0140 0.9934 1.0000
vt 0.2487 0.9934 1.0000
vt 0.4913 0.9934 1.0000
vt 0.3614 0.9934 1.0000
vt 0.1274 0.2518 1.0000
vt 0.0126 0.2556 1.0000
vt 0.2473 0.2556 1.0000
vt 0.4899 0.2556 1.0000
vt 0.3600 0.2556 1.0000
vt 0.1258 0.9871 1.0000
vt 0.0111 0.9909 1.0000
vt 0.2458 0.9909 1.0000
vt 0.4884 0.9909 1.0000
vt 0.3584 0.9909 1.0000
vt 0.2689 0.2624 1.0000
vt 0.2643 0.2572 1.0000
vt 0.2719 0.2572 1.0000
vt 0.2625 0.2549 1.0000
vt 0.2662 0.2572 1.0000
vt 0.0085 0.2639 1.0000
vt 0.0085 0.2639 1.0000
vt 0.0099 0.9934 1.0000
vt 0.0085 0.2639 1.0000
vt 0.0099 0.9934 1.0000
vt 0.0085 0.2556 1.0000
vt 0.0099 0.9934 1.0000
vt 0.0085 0.2556 1.0000
vt 0.0070 0.9909 1.0000
vt 0.0085 0.2556 1.0000
vt 0.0070 0.9909 1.0000
vt 0.5073 0.3153 0.0000
vt 0.9968 0.3153 0.0000
vt 0.5073 0.9920 0.0000
vt 0.9968 0.9920 0.0000
vt 0.5073 0.3153 0.0000
vt 0.9968 0.3153 0.0000
vt 0.5073 0.9920 0.0000
vt 0.9968 0.9920 0.0000
vt 0.5073 0.3153 0.0000
vt 0.9968 0.3153 0.0000
vt 0.5073 0.9920 0.0000
vt 0.9968 0.9920 0.0000
vt 0.5073 0.3153 0.0000
vt 0.9968 0.3153 0.0000
vt 0.5073 0.9920 0.0000
vt 0.9968 0.9920 0.0000
vt 0.5073 0.3153 0.0000
vt 0.9968 0.3153 0.0000
vt 0.5073 0.9920 0.0000
vt 0.9968 0.9920 0.0000
vt 0.5073 0.3153 0.0000
vt 0.9968 0.3153 0.0000
vt 0.5073 0.9920 0.0000
vt 0.9968 0.9920 0.0000
vt 0.3041 0.2639 0.0000
vt 0.1274 0.2601 1.0000
vt 0.0126 0.2639 1.0000
vt 0.2473 0.2639 1.0000
vt 0.4899 0.2639 1.0000
vt 0.3600 0.2639 1.0000
vt 0.1288 0.9896 1.0000
vt 0.0140 0.9934 1.0000
vt 0.2487 0.9934 1.0000
vt 0.4913 0.9934 1.0000
vt 0.3614 0.9934 1.0000
vt 0.1274 0.2518 1.0000
vt 0.0126 0.2556 1.0000
vt 0.2473 0.2556 1.0000
vt 0.4899 0.2556 1.0000
vt 0.3600 0.2556 1.0000
vt 0.1258 0.9871 1.0000
vt 0.0111 0.9909 1.0000
vt 0.2458 0.9909 1.0000
vt 0.4884 0.9909 1.0000
vt 0.3584 0.9909 1.0000
vt 0.2689 0.2624 1.0000
vt 0.2643 0.2572 1.0000
vt 0.2719 0.2572 1.0000
vt 0.2625 0.2549 1.0000
vt 0.2662 0.2572 1.0000
vt 0.0085 0.2639 1.0000
vt 0.0085 0.2639 1.0000
vt 0.0099 0.9934 1.0000
vt 0.0085 0.2639 1.0000
vt 0.0099 0.9934 1.0000
vt 0.0085 0.2556 1.0000
vt 0.0099 0.9934 1.0000
vt 0.0085 0.2556 1.0000
vt 0.0070 0.9909 1.0000
vt 0.0085 0.2556 1.0000
vt 0.0070 0.9909 1.0000
vt 0.5073 0.3153 0.0000
vt 0.9968 0.3153 0.0000
vt 0.5073 0.9920 0.0000
vt 0.9968 0.9920 0.0000
vt 0.5073 0.3153 0.0000
vt 0.9968 0.3153 0.0000
vt 0.5073 0.9920 0.0000
vt 0.9968 0.9920 0.0000
vt 0.5073 0.3153 0.0000
vt 0.9968 0.3153 0.0000
vt 0.5073 0.9920 0.0000
vt 0.9968 0.9920 0.0000
vt 0.5073 0.3153 0.0000
vt 0.9968 0.3153 0.0000
vt 0.5073 0.9920 0.0000
vt 0.9968 0.9920 0.0000
vt 0.5073 0.3153 0.0000
vt 0.9968 0.3153 0.0000
vt 0.5073 0.9920 0.0000
vt 0.9968 0.9920 0.0000
vt 0.5073 0.3153 0.0000
vt 0.9968 0.3153 0.0000
vt 0.5073 0.9920 0.0000
vt 0.9968 0.9920 0.0000
# 122 texture coords

g Cylinder001
s 8
f 1/2/1 7/8/2 6/7/3 
f 1/2/4 2/3/5 7/8/6 
f 2/28/7 8/9/8 7/29/9 
f 2/30/10 3/4/11 8/9/12 
f 3/4/13 9/10/14 8/9/15 
f 3/4/16 4/5/17 9/10/18 
f 4/5/19 10/11/20 9/10/21 
f 4/5/22 5/6/23 10/11/24 
f 5/6/25 6/7/26 10/11/27 
f 5/6/28 1/2/29 6/7/30 
f 6/7/31 12/13/32 11/12/33 
f 6/7/34 7/8/35 12/13/36 
f 7/31/37 13/14/38 12/32/39 
f 7/33/40 8/9/41 13/14/42 
f 8/9/43 14/15/44 13/14/45 
f 8/9/46 9/10/47 14/15/48 
f 9/10/49 15/16/50 14/15/51 
f 9/10/52 10/11/53 15/16/54 
f 10/11/55 11/12/56 15/16/57 
f 10/11/58 6/7/59 11/12/60 
f 11/12/61 17/18/62 16/17/63 
f 11/12/64 12/13/65 17/18/66 
f 12/34/67 18/19/68 17/35/69 
f 12/36/70 13/14/71 18/19/72 
f 13/14/73 19/20/74 18/19/75 
f 13/14/76 14/15/77 19/20/78 
f 14/15/79 20/21/80 19/20/81 
f 14/15/82 15/16/83 20/21/84 
f 15/16/85 16/17/86 20/21/87 
f 15/16/88 11/12/89 16/17/90 
f 16/17/91 17/18/92 21/23/93 
f 17/37/94 18/19/95 21/24/96 
f 18/19/97 19/20/98 21/25/99 
f 19/20/100 20/21/101 21/26/102 
f 20/21/103 16/17/104 21/22/105 
s 1
f 24/40/106 22/38/107 25/41/108 
f 23/39/109 25/41/110 22/38/111 
f 28/44/112 26/42/113 29/45/114 
f 27/43/115 29/45/116 26/42/117 
f 32/48/118 30/46/119 33/49/120 
f 31/47/121 33/49/122 30/46/123 
f 36/52/124 34/50/125 37/53/126 
f 35/51/127 37/53/128 34/50/129 
f 40/56/130 38/54/131 41/57/132 
f 39/55/133 41/57/134 38/54/135 
f 44/60/136 42/58/137 45/61/138 
f 43/59/139 45/61/140 42/58/141 
f 48/101/142 46/99/143 49/102/144 
f 47/100/145 49/102/146 46/99/147 
f 52/105/148 50/103/149 53/106/150 
f 51/104/151 53/106/152 50/103/153 
# 51 faces

